<svg
    width="384"
    height="426"
    viewBox="0 0 64 71"
    fill="none"
    xmlns="http://www.w3.org/2000/svg"
    >
<path
d="M22.01 31.677C24.689 32.921 29.903 36.863 29.903 42.835V46.306V49.676V56.518V70.119C29.782 70.181 29.534 70.268 28.95 70.119L5.573 56.496C3.991 55.563 0.714992 52.689 0.276992 48.658C0.0939916 39.39 -0.088003 20.517 0.641997 19.174L22.01 31.677Z"
fill="#A4FCFE"
/>
<path
d="M32.896 42.873V70.119C33.019 70.181 33.413 70.268 34.003 70.119L57.602 56.496C59.2 55.563 62.506 52.689 62.949 48.658C63.133 39.39 63.318 20.517 62.58 19.174L41.009 31.677C38.305 32.921 32.896 36.902 32.896 42.873Z"
fill="#0ED1FF"
/>
<path
d="M26.232 1.776C18.234 6.215 1.966 14.613 1.823 16.893C3.534 18.034 8.38 20.884 14.142 24.032C19.268 26.832 29.766 32.242 31.44 35.708C31.626 34.796 33.989 32.681 42.73 27.441C46.078 25.434 53.991 21.027 61.013 17.1C61.199 16.978 61.46 16.625 61.013 16.188C55.273 11.62 35.746 1.07199 33.608 0.358994C32.522 -0.188006 29.989 -0.0850066 28.65 0.498993C27.311 1.08199 26.48 1.593 26.232 1.776Z"
fill="#69E2FF"
/>
<path
d="M10.315 21.837C10.317 21.835 10.319 21.833 10.321 21.83C10.286 21.874 10.276 21.878 10.315 21.837ZM6.74899 20.167L6.286 21.713L7.69901 22.493C9.05401 23.241 12.87 25.403 17.179 28.012C18.02 28.52 19.055 29.108 20.146 29.728C20.342 29.84 20.541 29.953 20.74 30.066C22.062 30.818 23.451 31.616 24.754 32.421C26.063 33.23 27.241 34.019 28.151 34.745C29.128 35.525 29.553 36.047 29.663 36.279L31.625 40.421L33.314 36.199V36.201C33.32 36.204 33.55 35.828 34.61 34.958C35.774 34.003 37.754 32.597 41.065 30.573C43.585 29.033 49.668 25.637 55.101 22.635L55.174 22.595L55.243 22.548C55.62 22.297 56.118 21.798 56.276 21.016C56.463 20.088 56.074 19.284 55.548 18.757L55.399 18.609L55.223 18.495C50.428 15.378 39.441 8.88 34.094 6.135C33.258 5.705 32.173 5.58601 31.339 5.58201C30.474 5.57801 29.4 5.69501 28.52 6.08601C27.526 6.52801 26.796 6.95101 26.404 7.22201C23.328 8.96401 18.741 11.619 14.859 13.993C12.902 15.19 11.101 16.329 9.757 17.25C9.089 17.708 8.5 18.134 8.052 18.502C7.831 18.683 7.607 18.88 7.416 19.081L7.41299 19.084C7.29099 19.212 6.91799 19.604 6.74899 20.167Z"
fill="#69E2FF"
stroke="white"
strokeWidth="4"
/>
<path
d="M31.039 62.299V63.527L32.135 64.083C32.784 64.411 33.611 64.431 34.376 64.237L34.645 64.169L34.885 64.03L52.919 53.604L52.928 53.599C53.743 53.122 54.867 52.235 55.849 51.018C56.836 49.793 57.769 48.122 57.992 46.092L58.001 46.003L58.003 45.913C58.074 42.357 58.145 36.956 58.127 32.308C58.118 29.988 58.087 27.836 58.022 26.19C57.989 25.371 57.947 24.65 57.892 24.086C57.864 23.806 57.831 23.534 57.787 23.294C57.757 23.13 57.682 22.723 57.476 22.346L56.491 20.549L54.718 21.578L38.311 31.102C37.061 31.694 35.328 32.835 33.869 34.475C32.364 36.167 31.039 38.525 31.039 41.446V62.299ZM53.845 23.976C53.84 23.958 53.838 23.946 53.838 23.946C53.838 23.946 53.841 23.955 53.845 23.976Z"
fill="#0ED1FF"
stroke="white"
strokeWidth="4"
/>
<path
d="M31.761 62.299V63.527L30.665 64.083C30.016 64.411 29.189 64.431 28.424 64.237L28.155 64.169L27.914 64.03L9.881 53.604L9.872 53.599C9.057 53.122 7.93301 52.235 6.95101 51.018C5.96401 49.793 5.03101 48.122 4.80801 46.092L4.79801 46.003L4.797 45.913C4.726 42.357 4.65501 36.956 4.67301 32.308C4.68201 29.988 4.71301 27.836 4.77801 26.19C4.81101 25.371 4.85301 24.65 4.90801 24.086C4.93501 23.806 4.96901 23.534 5.01301 23.294C5.04301 23.13 5.11801 22.723 5.32401 22.346L6.30901 20.549L8.08201 21.578L24.489 31.102C25.739 31.694 27.472 32.835 28.931 34.475C30.435 36.167 31.761 38.525 31.761 41.446V62.299ZM8.95501 23.976C8.96001 23.958 8.96201 23.946 8.96201 23.946C8.96201 23.946 8.95901 23.955 8.95501 23.976Z"
fill="#A4FCFE"
stroke="white"
strokeWidth="4"
/>
    </svg>