<svg
    width="60"
    height="16"
    viewBox="0 0 260 71"
    fill="none"
    xmlns="http://www.w3.org/2000/svg"
    >
<path
d="M142.01 31.677C144.689 32.921 149.903 36.863 149.903 42.835V46.306V49.676V56.518V70.119C149.782 70.181 149.534 70.268 148.95 70.119L125.573 56.496C123.991 55.563 120.715 52.689 120.277 48.658C120.094 39.39 119.912 20.517 120.642 19.174L142.01 31.677Z"
fill="#A4FCFE"
/>
<path
d="M152.896 42.873V70.119C153.019 70.181 153.413 70.268 154.003 70.119L177.602 56.496C179.2 55.563 182.506 52.689 182.949 48.658C183.133 39.39 183.318 20.517 182.58 19.174L161.009 31.677C158.305 32.921 152.896 36.902 152.896 42.873Z"
fill="#0ED1FF"
/>
<path
d="M146.232 1.776C138.234 6.215 121.966 14.613 121.823 16.893C123.534 18.034 128.38 20.884 134.142 24.032C139.268 26.832 149.766 32.242 151.44 35.708C151.626 34.796 153.989 32.681 162.73 27.441C166.078 25.434 173.991 21.027 181.013 17.1C181.199 16.978 181.46 16.625 181.013 16.188C175.273 11.62 155.746 1.07199 153.608 0.358994C152.522 -0.188006 149.989 -0.0850066 148.65 0.498993C147.311 1.08199 146.48 1.593 146.232 1.776Z"
fill="#69E2FF"
/>
<path
d="M130.315 21.837C130.317 21.835 130.319 21.833 130.321 21.83C130.286 21.874 130.276 21.878 130.315 21.837ZM126.749 20.167L126.286 21.713L127.699 22.493C129.054 23.241 132.87 25.403 137.179 28.012C138.02 28.52 139.055 29.108 140.146 29.728C140.342 29.84 140.541 29.953 140.74 30.066C142.062 30.818 143.451 31.616 144.754 32.421C146.063 33.23 147.241 34.019 148.151 34.745C149.128 35.525 149.553 36.047 149.663 36.279L151.625 40.421L153.314 36.199V36.201C153.32 36.204 153.55 35.828 154.61 34.958C155.774 34.003 157.754 32.597 161.065 30.573C163.585 29.033 169.668 25.637 175.101 22.635L175.174 22.595L175.243 22.548C175.62 22.297 176.118 21.798 176.276 21.016C176.463 20.088 176.074 19.284 175.548 18.757L175.399 18.609L175.223 18.495C170.428 15.378 159.441 8.88 154.094 6.135C153.258 5.705 152.173 5.58601 151.339 5.58201C150.474 5.57801 149.4 5.69501 148.52 6.08601C147.526 6.52801 146.796 6.95101 146.404 7.22201C143.328 8.96401 138.741 11.619 134.859 13.993C132.902 15.19 131.101 16.329 129.757 17.25C129.089 17.708 128.5 18.134 128.052 18.502C127.831 18.683 127.607 18.88 127.416 19.081L127.413 19.084C127.291 19.212 126.918 19.604 126.749 20.167Z"
fill="#69E2FF"
stroke="white"
strokeWidth="4"
/>
<path
d="M151.039 62.299V63.527L152.135 64.083C152.784 64.411 153.611 64.431 154.376 64.237L154.645 64.169L154.885 64.03L172.919 53.604L172.928 53.599C173.743 53.122 174.867 52.235 175.849 51.018C176.836 49.793 177.769 48.122 177.992 46.092L178.001 46.003L178.003 45.913C178.074 42.357 178.145 36.956 178.127 32.308C178.118 29.988 178.087 27.836 178.022 26.19C177.989 25.371 177.947 24.65 177.892 24.086C177.864 23.806 177.831 23.534 177.787 23.294C177.757 23.13 177.682 22.723 177.476 22.346L176.491 20.549L174.718 21.578L158.311 31.102C157.061 31.694 155.328 32.835 153.869 34.475C152.364 36.167 151.039 38.525 151.039 41.446V62.299ZM173.845 23.976C173.84 23.958 173.838 23.946 173.838 23.946C173.838 23.946 173.841 23.955 173.845 23.976Z"
fill="#0ED1FF"
stroke="white"
strokeWidth="4"
/>
<path
d="M151.761 62.299V63.527L150.665 64.083C150.016 64.411 149.189 64.431 148.424 64.237L148.155 64.169L147.914 64.03L129.881 53.604L129.872 53.599C129.057 53.122 127.933 52.235 126.951 51.018C125.964 49.793 125.031 48.122 124.808 46.092L124.798 46.003L124.797 45.913C124.726 42.357 124.655 36.956 124.673 32.308C124.682 29.988 124.713 27.836 124.778 26.19C124.811 25.371 124.853 24.65 124.908 24.086C124.935 23.806 124.969 23.534 125.013 23.294C125.043 23.13 125.118 22.723 125.324 22.346L126.309 20.549L128.082 21.578L144.489 31.102C145.739 31.694 147.472 32.835 148.931 34.475C150.435 36.167 151.761 38.525 151.761 41.446V62.299ZM128.955 23.976C128.96 23.958 128.962 23.946 128.962 23.946C128.962 23.946 128.959 23.955 128.955 23.976Z"
fill="#A4FCFE"
stroke="white"
strokeWidth="4"
/>
<path
d="M256.097 60.89L247.272 18.204H247.136L229.144 62.601L211.221 18.204H211.085L202.26 60.89H199.113L210.195 7.601L229.144 54.528L248.162 7.601L259.244 60.89H256.097Z"
fill="#1E1E1E"
/>
<path
d="M101.916 14.532L99.5 16.521C97.084 12.684 93.673 10.197 88.628 10.197C82.872 10.197 78.538 14.816 78.538 20.43C78.538 26.043 83.867 28.388 88.202 30.449L98.434 35.779C102.485 38.337 104.546 41.605 104.546 46.438C104.546 55.32 96.445 62 87.776 62C80.314 62 74.487 57.381 72 50.488L74.985 49.138C77.259 54.823 81.451 58.802 87.918 58.802C94.953 58.802 101.135 53.259 101.135 46.153C101.135 40.113 94.953 37.555 90.334 35.281L80.67 30.165C77.117 27.962 75.127 24.835 75.127 20.572C75.127 12.613 80.812 7 88.841 7C94.242 7 99.358 9.913 101.916 14.532Z"
fill="#1E1E1E"
/>
<path
d="M27.784 7C42.849 7 55.568 19.435 55.568 34.5C55.568 49.564 42.849 62 27.784 62C12.72 62 0 49.564 0 34.5C0 19.435 12.649 7 27.784 7ZM27.784 10.197C14.425 10.197 3.411 21.282 3.411 34.5C3.411 47.717 14.425 58.802 27.784 58.802C41.072 58.802 52.158 47.646 52.158 34.5C52.158 21.282 41.072 10.197 27.784 10.197Z"
fill="#1E1E1E"
/>
    </svg>